<svg xmlns="http://www.w3.org/2000/svg" fill="none" viewBox="0 0 83 24"><circle cx="12" cy="12" r="3.75" fill="#1F1F1F" style="fill:color(display-p3 .1216 .1216 .1216);fill-opacity:1"/><path fill="#1F1F1F" d="M18.756 20.879c.32.319.287.847-.088 1.098A11.944 11.944 0 0 1 11.998 24c-2.467 0-4.762-.745-6.669-2.023-.375-.251-.407-.78-.088-1.098l2.74-2.74c.248-.248.633-.288.944-.128A6.72 6.72 0 0 0 12 18.75a6.72 6.72 0 0 0 3.073-.739c.312-.16.696-.12.944.127l2.74 2.74Z" style="fill:color(display-p3 .1216 .1216 .1216);fill-opacity:1"/><path fill="#1F1F1F" d="M18.67 2.023c.374.25.406.78.087 1.098l-2.74 2.74c-.248.248-.632.287-.944.128a6.75 6.75 0 0 0-9.085 9.085c.16.311.121.695-.126.943l-2.74 2.74c-.32.32-.848.288-1.1-.087A11.944 11.944 0 0 1 0 12C0 5.373 5.373 0 12 0c2.468 0 4.762.745 6.67 2.023Z" opacity=".5" style="fill:color(display-p3 .1216 .1216 .1216);fill-opacity:1"/><path fill="#1F1F1F" fill-rule="evenodd" d="M39.187 2.438c0-.104.084-.188.187-.188h2.813c.103 0 .187.084.187.188v19.125a.187.187 0 0 1-.187.187h-2.813a.188.188 0 0 1-.187-.188V2.438Zm-3.97 15.255a.193.193 0 0 0-.258.008 4.934 4.934 0 0 1-1.514.976 5.016 5.016 0 0 1-1.95.375 4.22 4.22 0 0 1-1.653-.284 4.15 4.15 0 0 1-1.402-.903c-.726-.74-1.144-1.799-1.144-3.06 0-2.525 1.68-4.252 4.2-4.252a4.678 4.678 0 0 1 1.96.4 4.59 4.59 0 0 1 1.474 1.042.194.194 0 0 0 .267.016l1.899-1.643a.183.183 0 0 0 .018-.26c-1.428-1.596-3.665-2.42-5.793-2.42-4.284 0-7.322 2.89-7.322 7.14 0 2.104.755 3.874 2.028 5.125 1.273 1.25 3.087 1.985 5.18 1.985 2.624 0 4.736-1.007 5.975-2.298a.183.183 0 0 0-.015-.265l-1.95-1.682Zm22.65-1.952a.185.185 0 0 1-.185.164H47.83a.181.181 0 0 0-.178.226c.49 1.818 1.952 2.917 3.947 2.917a4.44 4.44 0 0 0 1.948-.404 4.37 4.37 0 0 0 1.477-1.107.138.138 0 0 1 .192-.017l1.98 1.725c.076.066.087.18.022.257-1.196 1.41-3.134 2.436-5.793 2.436-4.09 0-7.176-2.833-7.176-7.137 0-2.111.727-3.882 1.939-5.132a6.709 6.709 0 0 1 2.252-1.49 6.801 6.801 0 0 1 2.67-.49c4.145 0 6.827 2.916 6.827 6.942-.006.37-.029.741-.07 1.11Zm-10.155-2.613a.179.179 0 0 0 .175.228h6.55c.122 0 .212-.113.178-.23-.447-1.545-1.58-2.576-3.339-2.576a3.652 3.652 0 0 0-1.51.274 3.599 3.599 0 0 0-1.255.869c-.368.417-.64.907-.8 1.435ZM67.684 7.69a.187.187 0 0 1 .19.187v3.149c0 .11-.094.195-.203.187a12.312 12.312 0 0 0-.78-.042c-2.453 0-3.893 1.727-3.893 3.994v6.398a.187.187 0 0 1-.187.187h-2.813a.188.188 0 0 1-.187-.188V8.072c0-.104.084-.188.187-.188h2.813c.103 0 .187.084.187.188v1.893a.02.02 0 0 0 .035.012c1.1-1.468 2.722-2.285 4.436-2.285l.215-.002Zm7.618 8.247a.06.06 0 0 1 .096.009l3.556 5.716a.188.188 0 0 0 .16.088h3.197a.188.188 0 0 0 .16-.286l-4.88-7.872a.188.188 0 0 1 .02-.225l4.701-5.186a.187.187 0 0 0-.139-.313H78.84a.187.187 0 0 0-.138.06l-5.439 5.929a.188.188 0 0 1-.325-.127V2.437a.187.187 0 0 0-.188-.187h-2.812a.188.188 0 0 0-.188.188v19.125c0 .103.084.187.188.187h2.812a.188.188 0 0 0 .188-.188v-3.009c0-.047.018-.093.05-.128l2.316-2.488Z" clip-rule="evenodd" style="fill:color(display-p3 .1216 .1216 .1216);fill-opacity:1"/></svg>
